<?xml version="1.0" encoding="UTF-8" standalone="no"?>
<svg
   xmlns:dc="http://purl.org/dc/elements/1.1/"
   xmlns:cc="http://creativecommons.org/ns#"
   xmlns:rdf="http://www.w3.org/1999/02/22-rdf-syntax-ns#"
   xmlns:svg="http://www.w3.org/2000/svg"
   xmlns="http://www.w3.org/2000/svg"
   version="1.1"
   id="svg2"
   viewBox="0 0 394 399.45224"
   height="112.7343mm"
   width="111.19556mm">
  <defs
     id="defs4" />
  <metadata
     id="metadata7">
    <rdf:RDF>
      <cc:Work
         rdf:about="">
        <dc:format>image/svg+xml</dc:format>
        <dc:type
           rdf:resource="http://purl.org/dc/dcmitype/StillImage" />
        <dc:title></dc:title>
      </cc:Work>
    </rdf:RDF>
  </metadata>
  <g
     transform="translate(-171.17555,-105.78173)"
     id="layer1">
    <path
       id="path4147"
       d="m 481.88649,504.41513 c -9.30187,-2.93581 -7.93374,-0.57718 -48.80231,-84.13377 -5.64925,-11.55 -11.10147,-22.21092 -12.11604,-23.69093 -1.01458,-1.48001 -10.27048,-8.51293 -20.56866,-15.62872 -10.29818,-7.11579 -20.74897,-14.3578 -23.22397,-16.09336 -16.47251,-11.5511 -25.19663,-17.08699 -26.92771,-17.08699 -1.93799,0 -6.07229,3.54144 -6.07229,5.20152 0,2.35994 -12.7299,27.14058 -18.34323,35.70782 -11.28612,17.22523 -30.40394,34.57044 -46.65677,42.33075 -7.3699,3.51894 -18.94517,7.235 -27.5,8.82844 -8.50985,1.58507 -33.97353,1.56474 -40.37368,-0.0322 -2.54448,-0.63493 -6.42632,-1.60622 -8.62632,-2.15845 -6.67367,-1.67521 -10.20448,-3.7147 -13.89484,-8.02606 -6.12493,-7.1556 -6.11229,-17.56281 0.0301,-24.73876 6.58162,-7.68914 12.33594,-8.58538 29.86478,-4.65146 9.25188,2.07635 22.437,1.68619 31.5,-0.93214 19.31454,-5.58002 35.7434,-19.43665 47.36679,-39.95067 4.70827,-8.30959 12.70442,-26.46756 13.90623,-31.57879 0.32331,-1.375 1.03806,-4.075 1.58833,-6 0.55028,-1.925 1.93159,-6.9875 3.06958,-11.25 1.13799,-4.2625 3.00467,-11.2375 4.14818,-15.5 1.14351,-4.2625 2.46359,-9.325 2.93351,-11.25 0.46992,-1.925 1.29641,-5.075 1.83664,-7 0.54023,-1.925 2.10831,-7.775 3.48462,-13 1.37631,-5.225 3.71247,-14 5.19148,-19.5 4.89861,-18.21654 5.1599,-19.39123 4.53731,-20.3986 -0.88793,-1.43669 -36.63215,-9.47281 -42.4454,-9.5427 -3.35128,-0.0403 -5.14343,0.41177 -5.71389,1.4413 -0.45713,0.825 -4.24962,12.075 -8.42776,25 -4.17813,12.925 -8.22221,24.46282 -8.98683,25.63961 -1.22303,1.88228 -1.16871,2.34008 0.4517,3.80653 1.78891,1.61894 1.78771,1.84522 -0.0416,7.86039 -1.03596,3.40641 -1.88701,6.95839 -1.89121,7.8933 -0.006,1.29824 3.00454,2.66875 12.74236,5.80109 14.17319,4.55906 17.25,6.15435 17.25,8.9439 0,1.04429 -2.63704,9.92142 -5.86008,19.72695 -3.22305,9.80552 -8.24788,25.16763 -11.16629,34.138 -5.125,15.75278 -7.26573,19.62422 -10.33843,18.69667 -5.23,-1.57875 -33.43164,-10.52883 -42.63524,-13.53072 -6.325,-2.06299 -18.925,-6.10376 -28,-8.97949 -9.075,-2.87573 -19.16613,-6.07773 -22.42473,-7.11556 -6.29007,-2.00331 -9.57527,-4.2757 -9.57527,-6.62325 0,-1.24926 4.89795,-17.15362 7.00843,-22.75742 0.41428,-1.1 2.66351,-8.075 4.99829,-15.5 9.19739,-29.24932 10.29656,-32.18112 12.42863,-33.15066 1.54213,-0.70127 5.22581,0.0848 14.55544,3.10589 6.86993,2.22462 13.46555,4.04477 14.65693,4.04477 2.15924,0 2.27102,-0.24056 5.93133,-12.76501 0.20333,-0.69575 1.50623,-1.69711 2.89532,-2.22525 1.3891,-0.52813 2.52563,-1.59772 2.52563,-2.37686 0,-0.77914 1.73621,-6.75277 3.85824,-13.27475 2.12203,-6.52197 6.67819,-20.63313 10.12481,-31.35813 3.44661,-10.725 7.15229,-21.525 8.23484,-24 5.37546,-12.28971 18.93848,-18.55376 32.66609,-15.08675 1.98881,0.50229 6.09102,1.4243 9.11602,2.0489 3.025,0.62461 7.3,1.54889 9.5,2.05395 3.82713,0.87862 18.55585,4.13746 27,5.97396 2.2,0.47847 6.25,1.38294 9,2.00994 7.16967,1.63467 12.22428,2.74062 18.5,4.0478 13.72051,2.85787 23.97007,5.92979 36.5,10.9395 16.35065,6.53731 16.27786,6.52132 29,6.36943 34.02516,-0.40623 60.76551,-16.92987 84.33799,-52.11491 4.48911,-6.70058 8.16201,-12.36662 8.16201,-12.59119 0,-0.99707 7.20166,-12.23802 9.24057,-14.42346 5.46549,-5.85828 15.86805,-8.01516 22.5588,-4.67737 6.23782,3.11183 11.20063,11.39536 11.20063,18.69519 0,4.08162 -6.84151,18.94231 -14.84944,32.25501 -10.75004,17.8713 -29.64022,38.83785 -44.74657,49.66504 -20.79525,14.9046 -37.78075,20.70475 -66.90399,22.84615 -8.8,0.64706 -17.00222,1.65478 -18.22716,2.23939 -2.63055,1.25545 -3.87499,4.53078 -8.83348,23.24942 -2.03969,7.7 -5.68933,21.425 -8.11029,30.5 -6.30222,23.6239 -6.9394,26.80887 -5.74281,28.70587 0.98239,1.5574 3.56372,3.43698 28.47686,20.73525 6.29028,4.36761 14.74201,10.36486 18.78161,13.3272 l 7.34473,5.38609 12.52162,25.6728 c 6.88689,14.12003 16.23135,33.32279 20.76547,42.67279 4.53412,9.35 11.00676,22.69607 14.38365,29.65793 5.40944,11.15221 6.1398,13.36433 6.1398,18.59636 0,3.38149 -0.67287,7.28722 -1.56271,9.07096 -1.97004,3.94905 -7.78104,8.7935 -11.42123,9.52154 -1.53051,0.3061 -3.84773,0.76496 -5.1494,1.0197 -1.30166,0.25473 -4.07172,-0.075 -6.15568,-0.73272 z M 263.81218,279.78136 c 1.36819,-4.21285 0.33142,-5.23344 -3.83939,-3.77949 -5.52088,1.92459 -16.01748,-1.33493 -20.13426,-6.25232 -2.02649,-2.42059 -3.08192,-1.84014 -4.03758,2.22052 -0.39096,1.66122 -0.16335,2.99875 0.59561,3.5 2.42513,1.60167 22.32127,8.13829 24.27895,7.97654 1.33534,-0.11033 2.37775,-1.32841 3.13667,-3.66525 z M 400.17551,172.07301 c -10.68411,-3.92071 -16.9345,-9.27315 -21.15451,-18.1154 -2.73417,-5.72893 -3.1278,-7.60057 -3.09508,-14.71636 0.0314,-6.83504 0.48565,-9.06789 2.81042,-13.81569 4.48387,-9.15726 11.72462,-15.17315 22.33839,-18.55963 9.94108,-3.17184 23.45722,0.81789 31.60078,9.328 13.21203,13.80672 13.06736,33.00653 -0.35338,46.89652 -4.315,4.46588 -5.90173,5.47506 -13.44367,8.55038 -2.82031,1.15001 -15.92184,1.45276 -18.70295,0.43218 z"
       style="fill:#000000" />
  </g>
</svg>
