<?xml version="1.0" standalone="no"?>
<!DOCTYPE svg PUBLIC "-//W3C//DTD SVG 20010904//EN"
 "http://www.w3.org/TR/2001/REC-SVG-20010904/DTD/svg10.dtd">
<svg version="1.0" xmlns="http://www.w3.org/2000/svg"
 width="959.000000pt" height="959.000000pt" viewBox="0 0 959.000000 959.000000"
 preserveAspectRatio="xMidYMid meet">
<metadata>
Created by potrace 1.11, written by Peter Selinger 2001-2013
</metadata>
<g transform="translate(0.000000,959.000000) scale(0.100000,-0.100000)"
fill="#000000" stroke="none">
<path d="M5635 9579 c-204 -45 -420 -188 -528 -352 -104 -158 -129 -245 -130
-457 0 -150 14 -210 79 -344 81 -167 203 -288 377 -373 122 -60 148 -66 287
-67 191 -1 256 8 352 50 110 49 150 75 226 148 206 197 301 451 268 710 -15
112 -94 290 -167 376 -140 165 -282 254 -479 302 -58 14 -233 18 -285 7z"/>
<path d="M9037 9254 c-1 -1 -20 -4 -42 -7 -91 -13 -177 -51 -248 -109 -50 -42
-196 -252 -256 -368 -27 -53 -192 -307 -274 -424 -153 -215 -368 -456 -547
-611 -173 -151 -434 -310 -623 -380 -40 -15 -81 -31 -92 -36 -41 -17 -203 -59
-305 -78 -129 -24 -261 -35 -445 -35 -230 0 -282 11 -545 116 -410 165 -599
220 -1170 343 -118 26 -255 56 -305 67 -49 11 -130 29 -180 39 -49 11 -98 22
-108 25 -9 2 -25 6 -35 8 -22 6 -150 33 -182 40 -14 2 -54 11 -90 20 -36 8
-76 17 -90 20 -66 14 -219 47 -350 76 -80 17 -152 33 -160 35 -8 1 -35 9 -60
16 -71 20 -283 17 -355 -5 -66 -20 -163 -64 -183 -83 -7 -7 -17 -13 -22 -13
-15 0 -124 -112 -159 -163 -49 -72 -73 -132 -185 -471 -107 -320 -140 -421
-271 -831 -42 -132 -85 -265 -95 -295 -10 -30 -24 -81 -31 -113 -13 -62 -19
-70 -87 -107 l-46 -25 -42 -137 c-45 -149 -64 -188 -93 -188 -29 0 -189 43
-381 102 -236 73 -290 84 -331 68 -48 -20 -80 -99 -234 -585 -32 -99 -76 -236
-98 -305 -21 -69 -68 -210 -104 -315 -35 -104 -72 -219 -83 -255 -10 -36 -30
-105 -45 -154 -34 -113 -29 -134 38 -180 53 -36 127 -65 347 -134 356 -113
723 -230 820 -262 30 -10 143 -46 250 -80 107 -33 220 -69 250 -80 30 -10 116
-37 190 -60 74 -23 144 -45 155 -50 11 -4 54 -18 95 -30 41 -13 122 -37 180
-55 145 -45 147 -46 173 -25 38 30 100 171 180 410 77 230 237 717 241 735 2
6 6 17 9 25 37 95 167 534 167 566 0 56 -75 95 -373 195 -116 39 -241 85 -277
102 -81 40 -81 41 -26 231 42 144 43 156 7 193 -17 18 -31 38 -31 44 0 6 17
53 37 103 20 50 118 334 217 631 205 612 180 565 303 566 55 0 294 -35 313
-46 3 -2 27 -6 54 -9 27 -4 52 -9 56 -11 3 -2 51 -13 106 -25 54 -12 106 -23
115 -25 9 -2 71 -17 137 -34 253 -63 264 -68 256 -123 -6 -41 -79 -326 -170
-663 -14 -49 -26 -97 -29 -106 -2 -10 -17 -66 -33 -125 -26 -96 -94 -350 -177
-669 -27 -100 -145 -542 -190 -710 -14 -49 -32 -119 -41 -155 -50 -194 -288
-708 -427 -918 -221 -335 -484 -572 -802 -723 -239 -113 -417 -149 -715 -144
-174 2 -183 4 -465 61 -112 23 -271 22 -340 -1 -165 -56 -299 -236 -310 -415
-12 -202 115 -394 313 -475 100 -40 369 -104 477 -112 199 -16 674 -8 805 13
170 26 634 174 675 215 5 5 14 9 21 9 16 0 189 103 279 165 298 208 595 504
795 797 51 74 160 253 160 263 0 2 16 32 36 67 96 166 236 457 285 586 14 40
84 100 125 107 23 5 48 -5 119 -46 103 -59 388 -248 393 -261 2 -4 8 -8 13 -8
6 0 15 -5 22 -10 12 -11 130 -93 343 -239 428 -295 714 -502 792 -575 36 -33
78 -111 271 -500 126 -254 264 -533 306 -621 162 -334 524 -1054 573 -1139 29
-49 52 -91 52 -93 0 -16 108 -158 145 -191 85 -75 227 -105 361 -77 91 19 151
49 223 112 107 93 143 181 143 348 0 127 -24 193 -192 540 -56 116 -137 282
-180 370 -43 88 -116 239 -163 335 -102 210 -239 493 -352 725 -45 94 -146
301 -225 460 -78 160 -150 308 -161 330 -15 30 -47 60 -137 125 -64 47 -121
88 -127 92 -27 21 -209 150 -280 198 -44 30 -84 59 -90 63 -5 5 -120 85 -255
179 -351 245 -429 304 -441 336 -18 46 -5 119 76 442 3 8 14 51 26 95 11 44
22 87 24 95 2 8 15 56 28 105 13 50 40 151 60 225 215 815 253 940 307 992 22
21 104 36 275 53 33 3 80 8 105 10 25 3 77 7 115 10 39 3 90 8 115 10 25 3 63
7 85 10 92 9 269 38 370 61 39 9 80 18 92 20 48 9 263 83 348 120 256 110 562
306 786 504 81 71 268 258 339 337 83 92 151 172 173 200 12 15 24 30 28 33
10 8 176 234 225 307 84 124 212 351 292 515 124 254 158 358 147 446 -23 186
-156 365 -310 416 -41 14 -159 28 -168 20z m-7334 -3597 c62 -63 130 -104 228
-137 72 -24 200 -34 251 -19 60 17 90 20 103 9 28 -23 -11 -157 -53 -178 -9
-5 -28 -8 -42 -6 -71 11 -474 145 -535 178 -46 24 -55 54 -35 121 22 74 37 80
83 32z"/>
</g>
</svg>
